<svg width="28" height="28" viewBox="0 0 28 28" fill="none" xmlns="http://www.w3.org/2000/svg">
<path d="M23.8994 4.10063C18.4319 -1.36688 9.56814 -1.36688 4.10063 4.10063C-1.36688 9.56814 -1.36688 18.4319 4.10063 23.8994C9.56814 29.3669 18.4319 29.3669 23.8994 23.8994C29.3669 18.4319 29.3669 9.56814 23.8994 4.10063ZM20.8603 11.4537C20.5496 11.7644 20.2353 12.0787 19.9246 12.3894C18.5604 13.7536 17.1998 15.1142 15.8356 16.4784C14.9785 17.3319 14.125 18.189 13.2715 19.0425C12.7251 19.5889 11.7966 19.5889 11.2502 19.0425C11.0823 18.8747 10.9145 18.7068 10.7502 18.539C9.56814 17.3534 8.38607 16.1713 7.204 14.9857C6.63976 14.4214 6.67904 13.5357 7.204 12.9644C7.7254 12.3965 8.69677 12.4358 9.2253 12.9644C9.39315 13.1322 9.561 13.3 9.72527 13.4679C10.5716 14.3143 11.418 15.1642 12.2608 16.0106C13.6 14.6714 14.9357 13.3358 16.2749 11.9966L18.839 9.43243C19.4032 8.86818 20.2889 8.90747 20.8603 9.43243C21.4281 9.9574 21.3888 10.9252 20.8603 11.4537Z" fill="#77A240"/>
</svg>
