<svg width="33" height="24" viewBox="0 0 33 24" fill="none" xmlns="http://www.w3.org/2000/svg">
<path d="M24.374 24.0003C19.801 24.0003 16.4999 20.2776 16.5 14.7654C16.5293 6.75663 22.635 1.09418 31.4434 0.00675812C32.2606 -0.0941283 32.5757 1.02215 31.8231 1.35211C28.4433 2.83403 26.7363 4.71453 26.5158 6.57584C26.3511 7.96646 27.1177 9.18462 28.0804 9.41271C30.576 10.0041 32.2481 13.0686 32.2481 16.2359C32.2481 20.5241 28.7228 24.0003 24.374 24.0003Z" fill="#BDBDBD"/>
<path d="M7.87401 24.0003C3.301 24.0003 -9.21479e-05 20.2776 1.84282e-05 14.7654C0.0293062 6.75663 6.135 1.09418 14.9434 0.00675812C15.7606 -0.0941283 16.0757 1.02215 15.3231 1.35211C11.9433 2.83403 10.2363 4.71453 10.0158 6.57584C9.85108 7.96646 10.6177 9.18462 11.5804 9.41271C14.076 10.0041 15.7481 13.0686 15.7481 16.2359C15.7481 20.5241 12.2228 24.0003 7.87401 24.0003Z" fill="#BDBDBD"/>
</svg>
