<svg width="203" height="60" viewBox="0 0 203 60" fill="none" xmlns="http://www.w3.org/2000/svg">
<path d="M26.1853 54.0445C26.1957 51.8859 26.2062 49.7274 26.2163 47.613C26.8784 47.3518 27.3206 47.0015 27.587 46.5623C27.8535 46.1231 27.9892 45.3748 27.9941 44.3616C27.9954 44.0973 27.9965 43.8771 27.9977 43.6128C28.0277 37.4015 28.0574 31.2343 28.0874 25.0231C28.0886 24.7588 28.0897 24.5385 28.091 24.2742C28.0956 23.3051 27.9669 22.5996 27.7049 22.1138C27.4427 21.672 27.0037 21.3615 26.3438 21.1821C26.3542 19.0236 26.3646 16.8651 26.3748 14.7506C30.0311 14.7682 33.6875 14.7418 37.3879 14.7596C37.3777 16.8741 37.3677 18.9445 37.3575 21.059C36.6959 21.232 36.2539 21.5382 35.9872 22.0215C35.7208 22.4608 35.5852 23.165 35.5808 24.09C35.5795 24.3544 35.5784 24.5746 35.5772 24.8389C35.5479 30.918 35.5183 37.0412 35.489 43.1203C35.4877 43.3846 35.4867 43.6048 35.4854 43.8691C35.5246 44.8825 35.6533 45.588 35.8717 45.9855C36.09 46.383 36.5293 46.6495 37.2334 46.785C37.2233 48.8995 37.2133 50.9699 37.2031 53.0844C33.5015 53.3308 29.8435 53.6656 26.1853 54.0445Z" fill="#050606"/>
<path d="M39.2765 52.6551C39.2865 50.5847 39.2965 48.5143 39.3065 46.4439C39.9685 46.1827 40.4105 45.8765 40.677 45.4373C40.9434 44.998 41.079 44.2938 41.0836 43.3247C41.0847 43.1044 41.086 42.8401 41.087 42.6199C41.1159 36.6289 41.1886 30.6822 41.2175 24.6912C41.2186 24.4709 41.2198 24.2066 41.2209 23.9863C41.2254 23.0613 41.0966 22.3558 40.8344 21.914C40.5722 21.4722 40.1332 21.1617 39.4731 21.0264C39.4831 18.956 39.493 16.8856 39.503 14.8152C43.5998 14.8349 47.6966 14.8547 51.8374 14.8746C52.0577 14.8757 52.322 14.877 52.5423 14.878C54.3484 14.8867 55.7135 14.9814 56.7257 15.2066C57.6939 15.3874 58.5731 15.7881 59.3634 16.3206C60.593 17.1195 61.5567 18.2695 62.2104 19.7264C62.8642 21.1832 63.2087 22.8148 63.1994 24.7531C63.1782 29.1582 61.5793 31.8377 58.4466 32.8799C61.9669 33.6898 63.7596 36.4737 63.6924 41.2751C63.6862 42.5526 63.5484 43.7414 63.3228 44.8416C63.0974 45.8978 62.7404 46.8652 62.2515 47.7439C61.807 48.5788 61.2309 49.2808 60.5674 49.8503C59.8155 50.4634 58.8881 50.9435 57.8296 51.2027C56.7709 51.506 55.2282 51.6748 53.2893 51.7976C53.0691 51.7965 52.8927 51.8397 52.6724 51.8386C48.2222 52.0374 43.7274 52.3241 39.2765 52.6551ZM48.7633 22.0404C48.7512 24.5513 48.7391 27.0622 48.7269 29.5731C49.6082 29.5333 50.4892 29.5376 51.3705 29.4978C51.5907 29.4988 51.7669 29.4997 51.9872 29.5008C53.3089 29.4631 54.2355 29.1592 54.855 28.5895C55.4745 28.0198 55.7434 27.0519 55.7498 25.7304C55.756 24.4529 55.4523 23.4823 54.8824 22.9068C54.3127 22.2874 53.3448 22.0184 52.0673 22.0122C51.8471 22.0112 51.6709 22.0103 51.4506 22.0093C50.5255 22.0048 49.6445 22.0005 48.7633 22.0404ZM48.6523 35.9163C48.6381 38.8678 48.6236 41.8633 48.6094 44.8147C49.4906 44.7749 50.3278 44.7349 51.2091 44.6951C51.5615 44.6968 51.8701 44.6542 52.2225 44.6559C53.6325 44.5746 54.6038 44.1388 55.2239 43.4369C55.844 42.7351 56.1577 41.6353 56.1651 40.0935C56.1702 39.0363 56.0421 38.1986 55.7808 37.5806C55.5194 36.9626 55.0813 36.476 54.5099 36.2089C53.9385 35.9418 53.1902 35.8061 52.3092 35.8018C51.9568 35.8001 51.6482 35.8427 51.2958 35.841C50.3707 35.8365 49.5335 35.8765 48.6523 35.9163Z" fill="black" stroke="black" stroke-width="0.1786" stroke-miterlimit="3.8637"/>
<path d="M139.808 15.1231C141.438 24.2939 143.067 33.5087 144.696 42.8116C144.911 43.958 145.127 44.796 145.345 45.2376C145.608 45.6794 146.003 45.9897 146.53 46.2125C146.52 48.2389 146.511 50.2652 146.501 52.2916C142.758 52.0092 139.058 51.7711 135.315 51.5769C135.324 49.5946 135.334 47.5682 135.344 45.5859C136.489 45.5914 137.064 45.0655 137.069 44.0083C137.07 43.9643 137.027 43.6557 136.942 43.1266C136.942 43.0385 136.898 42.9502 136.899 42.8621C136.813 42.3331 136.727 41.8481 136.642 41.3191C134.528 41.2208 132.414 41.1225 130.3 41.0682C130.209 41.5524 130.118 42.0805 130.028 42.5647C129.938 42.9607 129.892 43.357 129.89 43.7094C129.885 44.7226 130.455 45.298 131.644 45.3918C131.635 47.3741 131.625 49.3565 131.616 51.3388C128.268 51.1905 124.921 51.0422 121.618 50.8941C121.627 48.9118 121.637 46.9735 121.646 44.9912C122.176 44.8176 122.574 44.5552 122.84 44.1159C123.106 43.6767 123.331 42.8848 123.557 41.6524C125.185 32.8057 126.814 23.9591 128.487 15.0245C132.275 15.0868 136.063 15.1051 139.808 15.1231ZM135.698 36.0282C134.925 32.0157 134.195 28.0034 133.421 24.035C132.697 27.9962 131.973 31.9574 131.206 35.8744C132.703 35.9257 134.201 35.9769 135.698 36.0282Z" fill="#020202"/>
<path d="M170.091 38.9243C170.069 43.3735 170.004 47.7784 169.983 52.2276C168.437 53.0131 166.672 53.5773 164.732 53.9204C162.792 54.2634 160.942 54.3426 159.136 54.1577C157.419 53.9732 155.879 53.6134 154.473 52.9898C153.066 52.4104 151.836 51.6115 150.828 50.5934C149.118 48.8671 148.248 46.4841 148.308 43.3567C148.31 42.784 148.313 42.2113 148.316 41.6827C148.385 36.3527 148.411 31.0665 148.437 25.7363C148.439 25.1637 148.442 24.635 148.445 24.0624C148.608 17.6315 152.28 14.4334 159.548 14.5125C160.737 14.5182 161.882 14.6118 162.983 14.7933C164.127 14.9751 165.227 15.2447 166.415 15.6469C167.558 16.0489 168.833 16.5837 170.283 17.2955C170.266 20.9518 170.204 24.6519 170.186 28.3081C167.808 28.2086 165.429 28.109 163.051 28.0094C163.052 27.8773 163.052 27.701 163.053 27.5689C163.058 26.5117 163.018 25.7185 162.932 25.2776C162.89 24.7928 162.716 24.3514 162.498 23.9539C162.192 23.4238 161.798 22.9814 161.227 22.6703C160.699 22.3594 160.128 22.1804 159.555 22.1336C158.938 22.1306 158.365 22.26 157.835 22.5218C157.305 22.7835 156.907 23.2221 156.552 23.749C156.33 24.1444 156.151 24.5841 156.061 25.0242C155.971 25.4643 155.967 26.1691 155.962 27.2263C155.961 27.4466 155.96 27.6228 155.959 27.8431C155.939 31.9839 155.875 36.1686 155.855 40.3094C155.849 41.6309 155.889 42.5122 155.93 42.997C156.016 43.482 156.146 43.9672 156.408 44.4089C157.107 45.6017 158.073 46.2672 159.394 46.3617C160.671 46.4559 161.687 45.9762 162.353 44.8781C162.575 44.4827 162.753 44.0431 162.8 43.6028C162.89 43.1186 162.938 42.414 162.942 41.4008C162.943 41.1806 162.944 41.0044 162.945 40.7841C162.949 39.9912 162.953 39.1542 162.957 38.3613C165.379 38.5932 167.757 38.7809 170.091 38.9243Z" fill="#020202"/>
<path d="M0.00296693 57.3114C0.0142235 54.9767 0.0254802 52.642 0.0367368 50.3072C0.698995 50.0021 1.14142 49.6077 1.40806 49.1244C1.67471 48.6412 1.81069 47.8489 1.816 46.7476C1.81727 46.4833 1.81855 46.219 1.81982 45.9547C1.85232 39.2148 1.88481 32.4749 1.96136 25.7353C1.96263 25.471 1.96391 25.2066 1.96518 24.9423C1.97028 23.8851 1.84195 23.0915 1.57997 22.6057C1.318 22.1199 0.879187 21.7653 0.219265 21.5859C0.230522 19.2512 0.241778 16.9165 0.253035 14.5818C4.52602 14.6024 8.79901 14.623 13.072 14.6436C13.4685 14.6455 13.8209 14.6472 14.2173 14.6491C17.345 14.6642 19.588 15.4239 21.0351 16.7965C23.0519 18.7886 24.0504 21.833 24.0301 26.0619C24.0171 28.7491 23.5664 30.8614 22.722 32.3992C21.8778 33.8929 20.5509 34.9878 18.7414 35.6839C20.3262 35.9118 21.469 36.446 22.1696 37.3304C22.8702 38.2148 23.216 39.5821 23.2071 41.4323C23.202 42.4895 23.1528 43.5465 23.1477 44.6038C23.1428 45.6169 23.2273 46.3662 23.4012 46.8516C23.6191 47.3373 23.9698 47.6914 24.541 48.0025C24.5306 50.161 24.5202 52.3195 24.5098 54.4781C21.7771 54.7733 19.0006 55.0242 16.2677 55.3634C15.8776 54.04 15.6667 52.1006 15.7224 49.678C15.7235 49.4578 15.7246 49.2375 15.7256 49.0173C15.7311 47.8719 15.7367 46.7266 15.7424 45.5372C15.7441 45.1848 15.7456 44.8764 15.7471 44.5681C15.7562 42.6739 15.63 41.4398 15.3244 40.8656C15.0188 40.2915 14.6683 39.8933 14.2286 39.715C13.789 39.5367 13.1286 39.4454 12.1591 39.5288C11.2336 39.6124 10.3083 39.652 9.38277 39.7357C9.37385 41.5858 9.36493 43.436 9.35601 45.2861C9.35474 45.5505 9.35346 45.8148 9.35219 46.0791C9.39093 47.1806 9.51947 47.9301 9.73761 48.3717C9.95595 48.7692 10.3952 49.0356 11.0992 49.2152C11.0883 51.4618 11.0773 53.7525 11.0665 55.9991C7.32017 56.3776 3.66157 56.8445 0.00296693 57.3114ZM9.5105 22.3796C9.49457 25.6835 9.47843 29.0314 9.4625 32.3352C10.1675 32.2946 10.8285 32.2537 11.4893 32.2569C11.6655 32.2578 11.8417 32.2586 12.0622 32.2156C13.6485 32.1352 14.7074 31.7878 15.3271 31.1741C16.0798 30.3848 16.4828 29.0211 16.4924 27.0388C16.5011 25.2327 16.1987 23.9978 15.4973 23.2895C14.8397 22.6256 13.652 22.2674 11.8897 22.303C11.7576 22.3023 11.6254 22.3017 11.4932 22.3011C10.8323 22.3419 10.1713 22.3828 9.5105 22.3796Z" fill="#020202"/>
<path d="M95.3651 50.5469C95.3744 48.6086 95.384 46.6263 95.3933 44.688C96.0549 44.515 96.4969 44.2088 96.7632 43.8136C97.0294 43.4184 97.1647 42.7583 97.169 41.8773C97.17 41.657 97.1711 41.4367 97.1722 41.2165C97.1993 35.5779 97.2265 29.9393 97.298 24.2569C97.299 24.0366 97.3001 23.8164 97.3012 23.5961C97.3054 22.7151 97.1764 22.0537 96.9143 21.6119C96.6519 21.2142 96.2128 20.9037 95.5529 20.7243C95.5623 18.786 95.5718 16.8037 95.5812 14.8654C99.8542 14.886 104.127 14.9066 108.4 14.9713C108.796 14.9732 109.149 14.9749 109.545 14.9768C112.673 14.9919 114.96 15.6637 116.364 16.904C118.382 18.6758 119.426 21.5002 119.363 25.2884C119.352 27.7112 118.902 29.6033 118.059 30.9208C117.215 32.2383 115.889 33.113 114.081 33.5888C115.666 33.8608 116.808 34.439 117.509 35.3234C118.21 36.1638 118.556 37.443 118.548 39.0729C118.543 39.9979 118.495 40.9669 118.49 41.8919C118.486 42.817 118.571 43.4782 118.789 43.9638C119.007 44.4054 119.401 44.8038 119.928 45.1147C119.919 47.053 119.91 48.9912 119.9 50.9735C117.169 50.8723 114.394 50.8148 111.619 50.7574C111.229 49.5221 111.017 47.847 111.027 45.6885C111.028 45.5123 111.029 45.2921 111.03 45.1159C111.035 44.1027 111.04 43.0895 111.045 42.0763C111.046 41.768 111.047 41.5036 111.049 41.1953C111.057 39.5213 110.93 38.4635 110.624 37.9333C110.318 37.4032 109.967 37.0491 109.528 36.8268C109.088 36.6484 108.428 36.5131 107.459 36.5084C106.534 36.504 105.609 36.4995 104.64 36.4948C104.632 38.0807 104.624 39.6665 104.617 41.2524C104.616 41.4726 104.615 41.6929 104.614 41.9131C104.653 42.8384 104.782 43.4998 105.001 43.8974C105.219 44.2508 105.658 44.5613 106.362 44.7409C106.353 46.6792 106.343 48.6615 106.334 50.5998C102.722 50.5824 99.0213 50.5645 95.3651 50.5469ZM104.844 21.6501C104.83 24.5135 104.816 27.3328 104.802 30.1961C105.507 30.1995 106.168 30.2027 106.873 30.2061C107.049 30.2069 107.225 30.2078 107.445 30.2088C109.031 30.2165 110.09 30.0013 110.709 29.4757C111.461 28.8185 111.863 27.6311 111.871 25.913C111.879 24.3272 111.532 23.2242 110.874 22.6043C110.216 21.9844 109.028 21.6703 107.266 21.6618C107.134 21.6612 107.002 21.6605 106.87 21.6599C106.165 21.6565 105.504 21.6533 104.844 21.6501Z" fill="#020202"/>
<path d="M171.676 55.84C171.686 53.6374 171.697 51.4348 171.708 49.2323C172.369 49.0592 172.811 48.7971 173.077 48.4019C173.344 47.9626 173.479 47.2585 173.484 46.2012C173.486 45.9369 173.487 45.6726 173.488 45.4083C173.519 38.9768 173.506 32.5891 173.537 26.1576C173.538 25.8933 173.54 25.629 173.541 25.4087C173.546 24.3955 173.417 23.646 173.155 23.1602C172.893 22.6744 172.454 22.3639 171.794 22.1404C171.805 19.9379 171.816 17.7353 171.826 15.5327C175.571 15.5508 179.271 15.5686 183.015 15.5867C183.004 17.8773 182.993 20.124 182.982 22.4146C182.321 22.5877 181.879 22.8939 181.612 23.4212C181.345 23.9045 181.209 24.6528 181.205 25.6659C181.203 25.9303 181.202 26.1946 181.201 26.4589C181.189 28.8376 181.178 31.2605 181.21 33.6395C182.455 31.3547 183.655 29.0698 184.9 26.741C185.522 25.5987 185.878 24.7634 186.057 24.3678C186.235 23.9281 186.369 23.4442 186.416 22.9158C186.463 22.3874 186.511 21.4184 186.517 20.141C186.518 20.0088 186.519 19.8766 186.52 19.7004C186.526 18.3348 186.533 17.0133 186.539 15.6918C189.667 15.7068 192.838 15.7221 195.966 15.7372C195.955 18.0279 195.944 20.3626 195.933 22.6533C195.404 22.7388 194.962 22.957 194.608 23.3517C194.253 23.7465 193.809 24.4932 193.231 25.5918C191.719 28.4919 190.252 31.3923 188.74 34.2485C190.525 38.7064 192.353 43.2526 194.137 47.8867C194.703 49.3431 195.138 50.3144 195.488 50.8007C195.839 51.2869 196.233 51.6412 196.761 51.9081C196.749 54.2869 196.738 56.6656 196.726 59.0004C193.293 58.4992 189.815 58.042 186.381 57.5849C186.387 56.2633 186.394 54.9418 186.4 53.6643C186.401 53.4881 186.401 53.3559 186.402 53.1797C186.405 52.6511 186.407 52.1225 186.41 51.5939C186.415 50.5366 186.331 49.7433 186.201 49.17C186.072 48.5967 185.812 47.7584 185.332 46.6548C185.158 46.2575 184.984 45.8161 184.81 45.4188C183.634 42.5497 182.414 39.6805 181.238 36.8995C181.224 39.9831 181.209 43.0226 181.238 46.1064C181.237 46.3708 181.236 46.6351 181.234 46.8994C181.273 48.0009 181.401 48.7944 181.62 49.236C181.838 49.6776 182.32 50.0764 182.98 50.3439C182.969 52.6345 182.958 54.8812 182.947 57.1718C179.117 56.6688 175.374 56.2543 171.676 55.84Z" fill="#020202"/>
<path d="M202.067 20.3133C201.579 20.8412 200.962 21.0598 200.215 21.0574C199.468 21.055 198.899 20.7884 198.419 20.3016C197.939 19.8147 197.679 19.1962 197.685 18.4461C197.69 17.7402 197.958 17.1234 198.445 16.6397C198.932 16.1559 199.549 15.8932 200.252 15.8954C200.956 15.8977 201.569 16.1644 202.093 16.6514C202.573 17.1383 202.832 17.7568 202.827 18.4627C202.822 19.1687 202.554 19.7855 202.067 20.3133ZM198.707 16.8611C198.264 17.3009 198.041 17.8296 198.036 18.4473C198.032 19.0649 198.248 19.5951 198.684 20.0377C199.121 20.4803 199.646 20.7026 200.262 20.7046C200.877 20.7066 201.406 20.4877 201.849 20.0479C202.291 19.6081 202.515 19.0794 202.519 18.4617C202.524 17.8441 202.308 17.3139 201.872 16.8713C201.435 16.4287 200.909 16.2064 200.294 16.2044C199.634 16.2464 199.15 16.4213 198.707 16.8611ZM200.2 17.0424C200.552 17.0435 200.815 17.0885 200.991 17.1332C201.297 17.2666 201.428 17.4876 201.425 17.8405C201.423 18.1052 201.334 18.2814 201.157 18.4132C201.069 18.4571 200.937 18.5008 200.761 18.5443C200.98 18.5891 201.155 18.6779 201.242 18.8106C201.329 18.9432 201.416 19.12 201.415 19.2523L201.413 19.4729C201.413 19.5171 201.412 19.6053 201.412 19.6935C201.411 19.7818 201.411 19.8259 201.455 19.826L201.454 19.8702L200.971 19.8686C200.971 19.8686 200.971 19.8686 200.971 19.8245C200.971 19.8245 200.971 19.8245 200.972 19.7804L200.972 19.6921L200.974 19.4715C200.976 19.1627 200.89 18.9418 200.715 18.8089C200.627 18.7645 200.408 18.7196 200.144 18.7188L199.749 18.7175L199.741 19.8205L199.257 19.8189L199.277 16.9953L200.2 16.9983L200.2 17.0424ZM200.724 17.4853C200.593 17.3966 200.417 17.3961 200.11 17.3951L199.67 17.3937L199.663 18.4084L200.102 18.4098C200.322 18.4105 200.454 18.411 200.586 18.3673C200.763 18.2796 200.895 18.1477 200.897 17.9271C200.943 17.7066 200.856 17.5298 200.724 17.4853Z" fill="black"/>
<path d="M78.6311 35.6754C81.835 35.6857 85.4031 33.8893 85.4344 29.5237C85.4623 25.6431 82.146 22.9425 80.4473 21.129C78.7486 19.3154 78.2829 16.9327 79.6514 15.8346C76.3111 16.4853 75.9757 20.4089 77.6264 22.7956C78.4081 23.9446 79.4065 25.4913 79.6168 26.7708C79.8264 28.1385 79.1166 29.1946 78.151 29.1914C76.2199 29.1852 75.5354 26.7135 76.6437 25.1737C74.4912 25.4313 72.7198 27.6305 72.7001 30.3645C72.6805 33.0985 75.4272 35.665 78.6311 35.6754Z" fill="#F79239"/>
<path d="M71.2374 29.3799C71.2529 27.22 72.0963 25.6359 73.9445 24.4076C75.5287 23.3548 74.5429 20.3541 72.4874 19.9507C73.5271 21.541 73.5161 23.0838 72.1934 24.3137C71.1351 25.3242 70.5046 27.7466 71.2374 29.3799Z" fill="#F79239"/>
<path d="M85.3101 34.7317C88.6025 32.8472 89.2042 28.1773 86.909 25.1287C87.5005 27.9955 87.2092 32.0494 85.3101 34.7317Z" fill="#F79239"/>
<path d="M94.6213 31.112L64.4004 31.0144C64.362 36.3591 67.0557 41.0501 71.1713 43.7579L69.7418 46.8011C69.3398 47.6391 69.4214 48.5228 69.9037 48.7452C70.386 48.9677 71.0934 48.484 71.4956 47.6019L72.8803 44.691C74.5898 45.5358 76.4779 46.0278 78.5005 46.1668L78.4986 46.4319C78.4919 47.3595 78.9264 48.1118 79.4543 48.1135C79.9821 48.1152 80.4274 47.3657 80.4341 46.4381L80.436 46.1731C82.1526 46.0461 83.827 45.654 85.3711 45.0406L86.5838 47.6948C86.9737 48.5354 87.6737 49.0677 88.1592 48.8484C88.6446 48.6291 88.695 47.7458 88.3491 46.9054L87.1368 44.207C91.5548 41.5709 94.581 36.7218 94.6213 31.112Z" fill="black" stroke="black" stroke-width="0.1786" stroke-miterlimit="3.8637"/>
<path d="M35.8998 7.37804C35.4825 7.37702 35.0783 7.31761 34.6873 7.19981C34.3013 7.0767 33.9912 6.91925 33.7568 6.72746L34.1814 5.75646C34.4059 5.93229 34.6735 6.0737 34.9842 6.18069C35.2949 6.28768 35.6061 6.34155 35.9178 6.34231C36.2648 6.34315 36.5217 6.29066 36.6888 6.18483C36.8558 6.07369 36.9403 5.92783 36.9421 5.74723C36.9434 5.61445 36.8942 5.50544 36.7945 5.42021C36.6999 5.32968 36.5749 5.25767 36.4196 5.20418C36.2693 5.15069 36.0637 5.09177 35.8029 5.02739C35.4017 4.9255 35.0733 4.82378 34.8179 4.72223C34.5625 4.62069 34.3429 4.45815 34.1591 4.23462C33.9804 4.01109 33.8929 3.71343 33.8966 3.34162C33.8999 3.01762 33.9858 2.72568 34.1544 2.46582C34.323 2.20065 34.574 1.99145 34.9074 1.83822C35.2459 1.685 35.6565 1.60898 36.1392 1.61015C36.476 1.61097 36.805 1.65427 37.1259 1.74003C37.4468 1.8258 37.7272 1.94865 37.9669 2.10858L37.5799 3.08764C37.0951 2.79432 36.6089 2.64707 36.1211 2.64588C35.7792 2.64505 35.5247 2.70286 35.3576 2.81931C35.1955 2.93578 35.1135 3.08962 35.1116 3.28083C35.1096 3.47205 35.2012 3.61568 35.3863 3.71174C35.5764 3.8025 35.8647 3.8935 36.2509 3.98474C36.6521 4.08664 36.9805 4.18835 37.2359 4.2899C37.4913 4.39144 37.7084 4.55132 37.8872 4.76953C38.0711 4.98775 38.1611 5.28277 38.1574 5.65458C38.1541 5.97327 38.0657 6.26519 37.8921 6.53036C37.7235 6.79022 37.47 6.99676 37.1315 7.14997C36.7931 7.30319 36.3825 7.37921 35.8998 7.37804Z" fill="#020202"/>
<path d="M39.0321 1.71279L40.254 1.71576L40.1976 7.29287L38.9757 7.2899L39.0321 1.71279Z" fill="#020202"/>
<path d="M46.255 7.30759L46.2813 3.9613L44.6997 6.71421L44.1491 6.71288L42.6301 4.02414L42.597 7.2987L41.4505 7.29591L41.5069 1.71881L42.5176 1.72126L44.4586 5.19184L46.4396 1.73079L47.4427 1.73323L47.4014 7.31037L46.255 7.30759Z" fill="#020202"/>
<path d="M50.9957 1.74186C51.4633 1.743 51.8673 1.82631 52.2075 1.9918C52.5528 2.1573 52.8169 2.39165 52.9999 2.69486C53.1829 2.99807 53.2723 3.35683 53.2681 3.77113C53.264 4.18011 53.1673 4.53842 52.9782 4.84603C52.789 5.14834 52.5202 5.3814 52.1716 5.54521C51.8281 5.70373 51.4225 5.78242 50.9549 5.78128L49.8914 5.7787L49.8758 7.31638L48.654 7.31342L48.7104 1.73631L50.9957 1.74186ZM50.8976 4.72943C51.2647 4.73032 51.5446 4.64867 51.7373 4.48448C51.9301 4.31498 52.028 4.07619 52.0312 3.76812C52.0343 3.45474 51.9412 3.21549 51.7518 3.05037C51.5625 2.87993 51.2842 2.79427 50.9172 2.79338L49.9216 2.79096L49.902 4.72701L50.8976 4.72943Z" fill="#020202"/>
<path d="M54.1609 1.74955L55.3827 1.75252L55.337 6.27794L57.9843 6.28438L57.9737 7.33606L54.1045 7.32666L54.1609 1.74955Z" fill="#020202"/>
<path d="M62.7547 6.3119L62.7443 7.34765L58.6564 7.33772L58.7127 1.76061L62.7026 1.77031L62.6921 2.80605L59.9166 2.79931L59.9043 4.01034L62.3556 4.0163L62.3454 5.02017L59.8942 5.01422L59.8811 6.30492L62.7547 6.3119Z" fill="#020202"/>
<path d="M65.9088 1.7781L67.1307 1.78106L67.0743 7.35817L65.8524 7.3552L65.9088 1.7781Z" fill="#020202"/>
<path d="M73.2258 1.79587L73.1694 7.37298L72.1663 7.37054L69.5683 3.97805L69.534 7.36415L68.3273 7.36122L68.3836 1.78411L69.3943 1.78656L71.9848 5.17904L72.019 1.79294L73.2258 1.79587Z" fill="#020202"/>
<path d="M78.0151 4.50849L79.1314 4.5112L79.1085 6.77392C78.8196 7.00161 78.4859 7.17609 78.1076 7.29734C77.7292 7.41859 77.349 7.47875 76.9669 7.47782C76.4188 7.47649 75.9272 7.35312 75.4923 7.10773C75.0573 6.85703 74.7164 6.5136 74.4694 6.07744C74.2274 5.63598 74.1093 5.13906 74.1149 4.58666C74.1205 4.03426 74.2486 3.54058 74.4994 3.10564C74.7553 2.66539 75.1057 2.32364 75.5506 2.08039C75.9957 1.83182 76.4947 1.70821 77.0478 1.70955C77.5104 1.71067 77.9294 1.79402 78.3049 1.9596C78.6803 2.12517 78.9947 2.36496 79.2479 2.67896L78.4558 3.44192C78.0829 3.02139 77.63 2.81048 77.097 2.80918C76.7601 2.80837 76.4602 2.882 76.1972 3.03009C75.9343 3.17818 75.7285 3.38749 75.5799 3.65802C75.4314 3.92855 75.3553 4.2391 75.3518 4.58966C75.3483 4.93491 75.4181 5.24316 75.5612 5.5144C75.7043 5.78564 75.9032 5.99859 76.1581 6.15325C76.4181 6.30261 76.714 6.37769 77.0458 6.3785C77.3978 6.37935 77.7154 6.30045 77.9986 6.14179L78.0151 4.50849Z" fill="#020202"/>
<path d="M83.6011 7.39833L82.5986 5.84223L82.5383 5.84208L81.4748 5.8395L81.4591 7.39312L80.2373 7.39015L80.2937 1.81305L82.579 1.8186C83.0466 1.81974 83.4505 1.90305 83.7908 2.06854C84.1361 2.23404 84.4002 2.46839 84.5832 2.7716C84.7662 3.07481 84.8556 3.43356 84.8514 3.84786C84.8472 4.26216 84.748 4.62046 84.5539 4.92275C84.3648 5.21975 84.096 5.44749 83.7475 5.606L84.9135 7.40152L83.6011 7.39833ZM83.6144 3.84486C83.6176 3.53148 83.5245 3.29223 83.3351 3.12711C83.1457 2.95667 82.8675 2.87101 82.5005 2.87012L81.5049 2.8677L81.4852 4.81172L82.4808 4.81414C82.8479 4.81503 83.1278 4.73072 83.3206 4.56122C83.5134 4.39171 83.6113 4.15293 83.6144 3.84486Z" fill="#020202"/>
<path d="M89.8819 6.37781L89.8714 7.41356L85.7835 7.40363L85.8399 1.82652L89.8298 1.83622L89.8193 2.87197L87.0437 2.86522L87.0315 4.07625L89.4827 4.08221L89.4726 5.08609L87.0213 5.08013L87.0083 6.37083L89.8819 6.37781Z" fill="#020202"/>
<path d="M90.9 1.83882L93.2984 1.84464C93.8716 1.84604 94.3758 1.96412 94.8109 2.19889C95.2511 2.42836 95.5897 2.75319 95.8268 3.17339C96.0689 3.5936 96.1872 4.08256 96.1816 4.64027C96.1759 5.19798 96.0478 5.68634 95.7972 6.10536C95.5516 6.52438 95.2064 6.85021 94.7615 7.08284C94.3217 7.31017 93.8153 7.42315 93.242 7.42175L90.8436 7.41592L90.9 1.83882ZM93.1924 6.36196C93.7204 6.36324 94.1418 6.21022 94.4567 5.90291C94.7766 5.5903 94.9393 5.16842 94.9446 4.63727C94.95 4.10611 94.7959 3.68612 94.4822 3.37728C94.1736 3.06314 93.7553 2.90543 93.2274 2.90415L92.1111 2.90144L92.0762 6.35924L93.1924 6.36196Z" fill="#020202"/>
<path d="M97.1312 1.85396L98.3531 1.85693L98.2967 7.43403L97.0748 7.43106L97.1312 1.85396Z" fill="#020202"/>
<path d="M103.648 6.41126L103.638 7.44701L99.5496 7.43708L99.606 1.85997L103.596 1.86966L103.585 2.90541L100.81 2.89867L100.798 4.1097L103.249 4.11565L103.239 5.11953L100.787 5.11358L100.774 6.40428L103.648 6.41126Z" fill="#020202"/>
<path d="M109.508 1.88403L109.452 7.46114L108.449 7.4587L105.851 4.0662L105.816 7.4523L104.61 7.44937L104.666 1.87227L105.677 1.87472L108.267 5.2672L108.301 1.8811L109.508 1.88403Z" fill="#020202"/>
<path d="M111.84 2.94141L110.151 2.9373L110.162 1.88562L114.762 1.8968L114.752 2.94848L113.062 2.94437L113.016 7.4698L111.795 7.46683L111.84 2.94141Z" fill="#020202"/>
<path d="M117.06 7.57523C116.643 7.57422 116.239 7.51481 115.848 7.397C115.462 7.2739 115.152 7.11645 114.917 6.92466L115.342 5.95366C115.566 6.12949 115.834 6.2709 116.145 6.37789C116.455 6.48487 116.767 6.53875 117.078 6.5395C117.425 6.54035 117.682 6.48785 117.849 6.38203C118.016 6.27089 118.101 6.12502 118.103 5.94443C118.104 5.81164 118.055 5.70263 117.955 5.6174C117.86 5.52688 117.735 5.45487 117.58 5.40137C117.43 5.34789 117.224 5.28896 116.963 5.22459C116.562 5.12269 116.234 5.02097 115.978 4.91943C115.723 4.81789 115.503 4.65535 115.32 4.43181C115.141 4.20829 115.053 3.91062 115.057 3.53882C115.06 3.21481 115.146 2.92288 115.315 2.66302C115.483 2.39784 115.734 2.18864 116.068 2.03542C116.406 1.8822 116.817 1.80618 117.3 1.80735C117.637 1.80817 117.965 1.85146 118.286 1.93723C118.607 2.02299 118.888 2.14584 119.127 2.30578L118.74 3.28484C118.256 2.99152 117.769 2.84427 117.282 2.84308C116.94 2.84225 116.685 2.90006 116.518 3.01651C116.356 3.13297 116.274 3.28681 116.272 3.47803C116.27 3.66924 116.362 3.81288 116.547 3.90894C116.737 3.9997 117.025 4.0907 117.411 4.18194C117.813 4.28383 118.141 4.38555 118.396 4.48709C118.652 4.58864 118.869 4.74851 119.048 4.96673C119.232 5.18495 119.322 5.47997 119.318 5.85177C119.315 6.17047 119.226 6.46239 119.053 6.72755C118.884 6.98741 118.63 7.19395 118.292 7.34717C117.954 7.50039 117.543 7.57641 117.06 7.57523Z" fill="#020202"/>
<path d="M120.645 7.55207C120.439 7.55157 120.266 7.47679 120.127 7.32772C119.987 7.17866 119.919 6.99259 119.921 6.7695C119.923 6.54111 119.996 6.35803 120.138 6.22027C120.28 6.0772 120.454 6.00592 120.661 6.00642C120.867 6.00692 121.039 6.07905 121.179 6.2228C121.318 6.36124 121.387 6.54466 121.384 6.77306C121.382 6.99614 121.31 7.18187 121.168 7.33025C121.025 7.47863 120.851 7.55257 120.645 7.55207Z" fill="#020202"/>
<path d="M129.292 1.9321L129.236 7.50921L128.232 7.50677L125.634 4.11427L125.6 7.50037L124.393 7.49744L124.45 1.92033L125.461 1.92279L128.051 5.31527L128.085 1.92917L129.292 1.9321Z" fill="#020202"/>
<path d="M133.041 7.61406C132.493 7.61273 131.999 7.48671 131.559 7.23599C131.124 6.98528 130.783 6.64185 130.536 6.2057C130.294 5.76424 130.176 5.26997 130.181 4.72288C130.187 4.17579 130.315 3.68478 130.566 3.24983C130.821 2.80958 131.169 2.46517 131.609 2.21659C132.054 1.96803 132.551 1.84441 133.099 1.84574C133.647 1.84707 134.138 1.97309 134.573 2.22379C135.008 2.4745 135.349 2.82058 135.596 3.26205C135.843 3.69821 135.964 4.18983 135.958 4.73692C135.953 5.28401 135.822 5.77767 135.566 6.21792C135.311 6.65285 134.963 6.99461 134.523 7.24319C134.083 7.49177 133.589 7.61539 133.041 7.61406ZM133.052 6.51457C133.363 6.51533 133.646 6.44165 133.899 6.29354C134.152 6.14012 134.35 5.92813 134.493 5.65759C134.642 5.38705 134.718 5.07916 134.722 4.73391C134.725 4.38866 134.655 4.08042 134.512 3.80918C134.374 3.53795 134.18 3.32766 133.93 3.17833C133.68 3.02368 133.4 2.94598 133.088 2.94523C132.776 2.94447 132.494 3.0208 132.241 3.17422C131.988 3.32234 131.787 3.53166 131.639 3.80219C131.495 4.07274 131.421 4.38064 131.418 4.72589C131.415 5.07114 131.482 5.37938 131.62 5.65061C131.763 5.92185 131.959 6.13479 132.209 6.28944C132.459 6.43877 132.74 6.51382 133.052 6.51457Z" fill="#020202"/>
<path d="M139.957 7.63086C139.6 7.63 139.271 7.56015 138.971 7.42131C138.675 7.27718 138.434 7.07475 138.245 6.81402L138.933 5.9552C139.215 6.36489 139.54 6.57018 139.907 6.57107C140.405 6.57228 140.657 6.26481 140.663 5.64868L140.69 2.99557L138.834 2.99106L138.845 1.95531L141.915 1.96277L141.878 5.57992C141.871 6.26511 141.705 6.77994 141.38 7.1244C141.054 7.46356 140.58 7.63238 139.957 7.63086Z" fill="#020202"/>
<path d="M145.41 7.64411C144.655 7.64228 144.069 7.42042 143.651 6.97854C143.239 6.53667 143.036 5.90675 143.045 5.08877L143.076 1.96559L144.298 1.96856L144.267 5.04394C144.257 6.0425 144.644 6.54274 145.428 6.54465C145.81 6.54558 146.103 6.42677 146.307 6.18824C146.51 5.9444 146.615 5.56487 146.62 5.04965L146.651 1.97428L147.858 1.97721L147.826 5.10039C147.818 5.91836 147.601 6.54727 147.174 6.9871C146.752 7.42694 146.164 7.64595 145.41 7.64411Z" fill="#020202"/>
<path d="M153.908 1.99191L153.851 7.56901L152.848 7.56658L150.25 4.17408L150.216 7.56018L149.009 7.55725L149.065 1.98014L150.076 1.9826L152.667 5.37508L152.701 1.98898L153.908 1.99191Z" fill="#020202"/>
<path d="M157.046 5.38572L156.329 6.16479L156.315 7.575L155.1 7.57205L155.157 1.99494L156.371 1.99789L156.345 4.6032L158.709 2.00357L160.067 2.00687L157.854 4.48735L160.138 7.58429L158.713 7.58083L157.046 5.38572Z" fill="#020202"/>
<path d="M161.045 7.65023C160.839 7.64973 160.666 7.57495 160.527 7.42588C160.387 7.27682 160.319 7.09074 160.321 6.86766C160.323 6.63927 160.396 6.45619 160.538 6.31843C160.68 6.17536 160.854 6.10408 161.06 6.10458C161.266 6.10508 161.439 6.17721 161.579 6.32096C161.718 6.4594 161.786 6.64282 161.784 6.87122C161.782 7.0943 161.71 7.28003 161.567 7.42841C161.425 7.57679 161.251 7.65073 161.045 7.65023Z" fill="#020202"/>
<path d="M166.268 4.33388C165.87 4.72967 165.385 4.94871 164.813 4.94686C164.242 4.94501 163.76 4.72286 163.367 4.32451C162.975 3.92615 162.758 3.44013 162.762 2.86658C162.767 2.29303 162.99 1.80842 163.388 1.41263C163.787 1.01683 164.272 0.797796 164.843 0.799642C165.414 0.801488 165.896 1.02365 166.289 1.422C166.682 1.82035 166.898 2.30637 166.894 2.87993C166.846 3.40922 166.667 3.89396 166.268 4.33388ZM163.563 1.58967C163.209 1.94149 163.03 2.338 163.026 2.86743C163.023 3.35274 163.195 3.79451 163.544 4.1486C163.893 4.50269 164.288 4.68044 164.815 4.68214C165.343 4.68385 165.739 4.50865 166.094 4.15683C166.448 3.80501 166.627 3.36439 166.63 2.87907C166.634 2.39376 166.461 1.952 166.112 1.59791C165.763 1.24382 165.369 1.06606 164.841 1.06436C164.314 1.06266 163.917 1.23785 163.563 1.58967ZM164.793 1.68189C165.057 1.68274 165.276 1.72757 165.407 1.77211C165.627 1.86106 165.757 2.08209 165.755 2.3468C165.753 2.5674 165.665 2.69947 165.532 2.78728C165.444 2.83112 165.356 2.87496 165.224 2.87453C165.399 2.91922 165.531 2.96376 165.618 3.0964C165.705 3.22905 165.748 3.31743 165.747 3.44979L165.746 3.62626C165.745 3.67038 165.745 3.7145 165.745 3.80274C165.744 3.84686 165.744 3.89098 165.744 3.9351L165.743 3.97922L165.392 3.97808C165.392 3.97808 165.392 3.97808 165.392 3.93396C165.392 3.93396 165.392 3.93396 165.392 3.88984L165.393 3.8016L165.394 3.62513C165.396 3.36041 165.309 3.18365 165.178 3.09498C165.091 3.05058 164.959 3.00604 164.739 3.00533L164.432 3.00433L164.425 3.88672L164.03 3.88544L164.046 1.63535L164.793 1.63777L164.793 1.68189ZM165.186 2.08024C165.098 2.03584 164.922 1.99115 164.703 1.99044L164.351 1.9893L164.345 2.82757L164.697 2.82871C164.872 2.82928 165.004 2.8297 165.093 2.78586C165.269 2.74231 165.314 2.6101 165.315 2.43362C165.36 2.21317 165.317 2.12479 165.186 2.08024Z" fill="black"/>
</svg>
