<svg width="16" height="13" viewBox="0 0 16 13" fill="none" xmlns="http://www.w3.org/2000/svg">
<path d="M16 1.77784C16 2.28561 15.5884 2.69738 15.0805 2.69738H0.91954C0.411586 2.69738 0 2.28561 0 1.77784V0.91954C0 0.41177 0.411586 0 0.91954 0H15.0805C15.5884 0 16 0.41177 16 0.91954V1.77784Z" fill="#474141"/>
<path d="M13.2411 6.55183C13.2411 7.05978 12.8295 7.47137 12.3215 7.47137H3.67784C3.16989 7.47137 2.7583 7.05978 2.7583 6.55183V5.69371C2.7583 5.18576 3.16989 4.77417 3.67784 4.77417H12.3215C12.8295 4.77417 13.2411 5.18576 13.2411 5.69371V6.55183Z" fill="#474141"/>
<path d="M10.4831 11.3259C10.4831 11.8337 10.0715 12.2455 9.56356 12.2455H6.43712C5.92916 12.2455 5.51758 11.8337 5.51758 11.3259V10.4676C5.51758 9.95987 5.92916 9.5481 6.43712 9.5481H9.56356C10.0715 9.5481 10.4831 9.95987 10.4831 10.4676V11.3259Z" fill="#474141"/>
</svg>
