<svg width="28" height="28" viewBox="0 0 28 28" fill="none" xmlns="http://www.w3.org/2000/svg">
<path d="M13.9998 0.000455332C11.2309 0.000455332 8.52417 0.821526 6.22192 2.35984C3.91967 3.89815 2.12528 6.08462 1.06568 8.64274C0.00606588 11.2009 -0.271176 14.0158 0.269008 16.7314C0.809192 19.4471 2.14254 21.9417 4.10044 23.8996C6.05835 25.8575 8.55287 27.1908 11.2686 27.731C13.9842 28.2712 16.7991 27.9939 19.3573 26.9343C21.9154 25.8747 24.1018 24.0803 25.6402 21.7781C27.1785 19.4758 27.9995 16.7691 27.9995 14.0002C28.0145 12.1576 27.6625 10.3304 26.9643 8.62514C26.266 6.91987 25.2353 5.37061 23.9324 4.06763C22.6294 2.76465 21.0801 1.734 19.3749 1.03573C17.6696 0.33746 15.8424 -0.0144655 13.9998 0.000455332ZM19.9357 17.9622C20.0822 18.0877 20.2013 18.2421 20.2853 18.4158C20.3693 18.5895 20.4165 18.7787 20.424 18.9715C20.4314 19.1643 20.3989 19.3565 20.3286 19.5362C20.2582 19.7158 20.1514 19.879 20.015 20.0154C19.8786 20.1519 19.7154 20.2586 19.5357 20.329C19.3561 20.3994 19.1638 20.4319 18.971 20.4244C18.7782 20.417 18.589 20.3698 18.4153 20.2857C18.2417 20.2017 18.0872 20.0827 17.9617 19.9361L13.9998 15.9742L10.0378 19.9361C9.77002 20.1655 9.42552 20.2853 9.07318 20.2717C8.72084 20.2581 8.38661 20.112 8.13728 19.8627C7.88795 19.6134 7.7419 19.2792 7.72829 18.9268C7.71468 18.5745 7.83452 18.23 8.06387 17.9622L12.0258 14.0002L8.06387 10.0383C7.83452 9.77047 7.71468 9.42597 7.72829 9.07363C7.7419 8.72129 7.88795 8.38706 8.13728 8.13773C8.38661 7.8884 8.72084 7.74234 9.07318 7.72873C9.42552 7.71512 9.77002 7.83497 10.0378 8.06432L13.9998 12.0263L17.9617 8.06432C18.2295 7.83497 18.574 7.71512 18.9264 7.72873C19.2787 7.74234 19.6129 7.8884 19.8623 8.13773C20.1116 8.38706 20.2577 8.72129 20.2713 9.07363C20.2849 9.42597 20.165 9.77047 19.9357 10.0383L15.9737 14.0002L19.9357 17.9622Z" fill="#8B0304"/>
</svg>
